<?xml version="1.0" standalone="no"?>
<!DOCTYPE svg PUBLIC "-//W3C//DTD SVG 20010904//EN"
 "http://www.w3.org/TR/2001/REC-SVG-20010904/DTD/svg10.dtd">
<svg version="1.0" xmlns="http://www.w3.org/2000/svg"
 width="260.000000pt" height="260.000000pt" viewBox="0 0 260.000000 260.000000"
 preserveAspectRatio="xMidYMid meet">
<metadata>
Created by potrace 1.14, written by Peter Selinger 2001-2017
</metadata>
<g transform="translate(0.000000,260.000000) scale(0.100000,-0.100000)"
fill="#000000" stroke="none">
<path d="M680 2131 c-67 -10 -159 -58 -211 -113 -84 -85 -189 -336 -254 -603
-48 -202 -44 -180 -76 -380 -5 -33 -12 -123 -15 -200 -5 -115 -3 -149 10 -189
22 -64 33 -86 65 -119 43 -48 78 -60 161 -60 121 1 202 44 348 184 152 147
226 199 347 240 56 20 434 20 490 0 121 -41 195 -93 347 -240 145 -139 231
-184 353 -184 118 0 176 46 221 179 13 40 15 74 10 189 -3 77 -10 167 -15 200
-32 200 -28 178 -76 380 -66 273 -171 520 -257 606 -27 27 -77 62 -114 80
-111 52 -240 43 -439 -31 -74 -28 -216 -59 -270 -60 -58 0 -178 25 -265 56
-166 59 -272 78 -360 65z m117 -82 c61 -15 202 -57 228 -68 154 -67 396 -67
550 0 32 14 176 56 235 69 40 8 63 9 83 1 16 -6 39 -11 53 -11 13 0 24 -4 24
-10 0 -5 9 -10 20 -10 11 0 25 -9 32 -20 7 -11 18 -20 25 -20 25 0 88 -104
137 -225 15 -38 32 -80 37 -92 20 -51 27 -71 44 -128 17 -58 21 -74 44 -160
11 -42 49 -242 72 -380 19 -112 17 -310 -3 -355 -19 -42 -52 -72 -96 -90 -64
-25 -173 19 -276 112 -51 46 -64 63 -54 70 9 7 8 8 -5 4 -13 -4 -32 8 -65 40
-114 111 -257 193 -366 208 -62 10 -370 10 -432 0 -45 -6 -83 -20 -174 -63
-49 -22 -136 -90 -190 -145 -33 -34 -50 -44 -65 -40 -14 4 -16 3 -7 -4 10 -7
-3 -24 -54 -70 -71 -64 -121 -93 -196 -112 -76 -20 -138 12 -178 94 -19 37
-20 239 -2 351 26 162 75 395 101 485 36 122 47 155 62 182 5 10 9 23 9 29 0
45 135 289 160 289 6 0 19 9 30 20 11 11 27 20 35 20 8 0 15 5 15 10 0 6 12
10 28 11 15 0 36 4 47 9 28 12 38 12 92 -1z"/>
<path d="M727 1840 c-114 -15 -217 -93 -272 -205 -26 -54 -29 -70 -29 -156 0
-86 3 -101 31 -160 35 -72 117 -156 173 -177 19 -8 60 -20 90 -27 68 -17 161
-4 235 33 62 31 135 107 169 178 22 45 26 66 26 146 0 106 -16 159 -68 227
-31 41 -88 89 -139 118 -19 11 -138 35 -153 32 -3 -1 -31 -5 -63 -9z m184
-117 c78 -41 126 -107 150 -206 12 -49 4 -101 -24 -152 -6 -11 -17 -32 -24
-46 -30 -59 -143 -119 -224 -119 -71 0 -164 45 -210 101 -35 42 -69 132 -69
180 0 73 60 179 129 229 69 48 195 55 272 13z"/>
<path d="M695 1684 c-40 -20 -93 -72 -112 -109 -23 -43 -22 -151 1 -194 23
-43 41 -62 90 -95 33 -22 50 -26 113 -26 62 0 80 4 116 27 74 46 107 106 107
190 -1 97 -49 173 -132 207 -48 20 -144 20 -183 0z m155 -95 c44 -27 57 -45
65 -90 12 -67 -26 -125 -96 -149 -32 -11 -42 -11 -72 3 -55 26 -87 71 -87 121
0 43 18 96 33 96 5 0 20 9 34 20 33 26 79 25 123 -1z"/>
<path d="M1750 1837 c-42 -16 -80 -78 -80 -131 0 -65 22 -101 77 -130 64 -32
150 -9 185 50 21 37 23 112 2 153 -27 54 -119 83 -184 58z m105 -121 c8 -24 6
-31 -14 -47 -31 -25 -47 -24 -67 6 -14 21 -15 31 -5 51 9 21 17 25 43 22 26
-2 35 -9 43 -32z"/>
<path d="M1510 1600 c-14 -11 -30 -18 -37 -15 -7 2 -10 -2 -6 -11 3 -8 0 -21
-7 -29 -16 -19 -16 -105 0 -136 18 -32 48 -55 92 -70 32 -10 44 -9 83 5 65 25
88 63 89 147 1 37 -1 66 -3 64 -2 -3 -22 11 -44 30 -35 30 -48 35 -91 35 -35
0 -59 -7 -76 -20z m122 -105 c9 -21 8 -28 -7 -45 -26 -29 -62 -26 -79 8 -19
37 -2 62 42 62 25 0 35 -6 44 -25z"/>
<path d="M1960 1599 c-43 -25 -60 -59 -60 -121 0 -60 13 -88 54 -116 50 -34
93 -37 146 -10 59 30 83 76 74 144 -6 39 -15 56 -46 87 -34 32 -45 37 -86 37
-29 0 -61 -8 -82 -21z m110 -89 c24 -24 25 -38 3 -62 -21 -24 -55 -23 -78 2
-16 17 -17 23 -5 45 11 21 24 29 53 34 4 0 16 -8 27 -19z"/>
<path d="M1709 1349 c-40 -40 -41 -43 -37 -98 5 -76 32 -114 96 -134 40 -14
55 -14 83 -4 69 25 99 69 99 147 0 45 -4 54 -40 90 -38 38 -43 40 -100 40 -57
0 -62 -2 -101 -41z m135 -65 c21 -20 20 -43 -1 -66 -22 -25 -50 -23 -69 7 -18
28 -11 62 14 68 31 8 41 7 56 -9z"/>
</g>
</svg>
